<svg height="511pt" viewBox="0 1 511 511.99881" width="511pt" xmlns="http://www.w3.org/2000/svg"><path d="m457.359375 428.894531h-273.070313c-11.640624 0-21.074218-9.4375-21.074218-21.078125s9.433594-21.074218 21.074218-21.074218h273.070313c11.640625 0 21.074219 9.433593 21.074219 21.074218.003906 11.640625-9.433594 21.078125-21.074219 21.078125zm0 0" fill="#9c6836"/><path d="m439.46875 312.515625h-51.070312c-39.871094-59.785156-36.21875-122.574219-28.746094-159.265625 3.105468-15.257812 9.324218-29.644531 17.632812-42.816406 6.546875-10.382813 10.332032-22.679688 10.3125-35.867188-.058594-35.484375-28.15625-65.136718-63.59375-66.984375-38.738281-2.019531-70.785156 28.796875-70.785156 67.09375 0 13.558594 4.023438 26.167969 10.929688 36.722657 7.472656 11.410156 13.117187 23.910156 16.175781 37.199218 8.253906 35.859375 14.34375 101.523438-27.261719 163.917969h-51.800781c-36.199219 0-65.542969 29.34375-65.542969 65.542969v20.59375h369.289062v-20.59375c0-36.199219-29.34375-65.542969-65.539062-65.542969zm0 0" fill="#c48d58"/><path d="m343.667969 74.566406c.023437 13.1875-3.765625 25.484375-10.3125 35.867188-8.304688 13.171875-14.523438 27.558594-17.632813 42.816406-7.472656 36.691406-11.125 99.480469 28.75 159.265625h43.925782c-39.871094-59.785156-36.21875-122.574219-28.746094-159.265625 3.105468-15.257812 9.324218-29.648438 17.632812-42.816406 6.546875-10.382813 10.332032-22.679688 10.3125-35.867188-.058594-35.484375-28.152344-65.136718-63.589844-66.984375-8.996093-.46875-17.621093.851563-25.574218 3.605469 26.3125 9.15625 45.1875 34.304688 45.234375 63.378906zm0 0" fill="#bf8247"/><path d="m439.46875 312.515625h-43.929688c36.199219 0 65.542969 29.34375 65.542969 65.542969v20.59375h43.925781v-20.59375c0-36.199219-29.34375-65.542969-65.539062-65.542969zm0 0" fill="#bf8247"/><path d="m297.1875 359.910156c0 79.863282-64.742188 144.601563-144.601562 144.601563-79.859376 0-144.597657-64.738281-144.597657-144.601563 0-79.859375 64.738281-144.597656 144.597657-144.597656 79.859374 0 144.601562 64.738281 144.601562 144.597656zm0 0" fill="#8dd0f0"/><path d="m152.585938 474.386719c-63.121094 0-114.472657-51.355469-114.472657-114.476563 0-63.117187 51.351563-114.472656 114.472657-114.472656 63.121093 0 114.476562 51.355469 114.476562 114.472656 0 63.121094-51.355469 114.476563-114.476562 114.476563zm0 0" fill="#dbf3ff"/><path d="m152.585938 245.4375c-8.214844 0-16.230469.878906-23.960938 2.53125 51.65625 11.042969 90.515625 57.039062 90.515625 111.941406 0 54.90625-38.859375 100.902344-90.515625 111.945313 7.730469 1.652343 15.746094 2.53125 23.960938 2.53125 63.121093 0 114.476562-51.355469 114.476562-114.476563s-51.355469-114.472656-114.476562-114.472656zm0 0" fill="#cef"/><path d="m439.46875 305.03125h-47.015625c-15.742187-24.679688-25.40625-52.125-28.742187-81.648438-2.53125-22.421874-1.429688-45.515624 3.277343-68.636718 2.785157-13.667969 8.378907-27.234375 16.628907-40.316406 7.527343-11.929688 11.492187-25.71875 11.46875-39.871094-.0625-39.6875-31.113282-72.390625-70.6875-74.453125-20.730469-1.082031-40.394532 6.167969-55.390626 20.40625-15.007812 14.246093-23.273437 33.480469-23.273437 54.167969 0 14.558593 4.203125 28.675781 12.152344 40.820312 7.300781 11.15625 12.398437 22.855469 15.144531 34.78125 6.390625 27.765625 10.4375 68.710938-3.816406 112.140625-27.917969-33.347656-69.835938-54.59375-116.628906-54.59375-29.8125 0-58.679688 8.625-83.484376 24.941406-8.070312 5.308594.164063 17.824219 8.230469 12.511719 22.351563-14.707031 48.375-22.480469 75.253907-22.480469 74.722656 0 137.113281 62.511719 137.113281 137.113281 0 75.605469-61.507813 137.109376-137.113281 137.109376-75.601563 0-137.109376-61.507813-137.109376-137.113282 0-33.300781 12.082032-65.40625 34.023438-90.402344 6.371094-7.261718-4.886719-17.140624-11.257812-9.878906-24.339844 27.730469-37.742188 63.34375-37.742188 100.28125 0 83.863282 68.226562 152.089844 152.085938 152.089844 56 0 105.023437-30.429688 131.417968-75.621094h88.722656c9.65625 0 9.65625-14.972656 0-14.972656h-81.054687c2.199219-4.957031 4.140625-10.050781 5.808594-15.265625h173.355469c.070312.550781.113281 1.109375.113281 1.675781 0 7.492188-6.097657 13.589844-13.589844 13.589844h-43.699219c-9.660156 0-9.660156 14.972656 0 14.972656h43.699219c15.75 0 28.566406-12.8125 28.566406-28.5625 0-.5625-.023437-1.121094-.054687-1.675781h19.136718c4.136719 0 7.488282-3.351563 7.488282-7.488281v-20.59375c0-40.269532-32.757813-73.027344-73.027344-73.027344zm58.054688 86.132812h-196.085938c2.117188-10.089843 3.234375-20.542968 3.234375-31.253906 0-13.804687-1.859375-27.183594-5.320313-39.90625h38.882813c9.660156 0 9.660156-14.976562 0-14.976562h-43.8125c-3.851563-9.921875-8.722656-19.347656-14.472656-28.140625 19.402343-50.277344 14.984375-98.210938 7.671875-129.96875-3.140625-13.652344-8.929688-26.984375-17.203125-39.621094-6.351563-9.703125-9.710938-20.980469-9.710938-32.621094 0-16.535156 6.609375-31.917969 18.609375-43.304687 11.988282-11.382813 27.738282-17.175782 44.300782-16.3125 31.628906 1.648437 56.441406 27.792968 56.492187 59.519531.019531 11.316406-3.148437 22.332031-9.15625 31.859375-9.222656 14.621094-15.492187 29.867188-18.636719 45.316406-5.023437 24.660156-6.195312 49.324219-3.484375 73.308594 3.757813 33.25 14.976563 64.070312 33.339844 91.609375 1.386719 2.082031 3.726563 3.332031 6.230469 3.332031h51.066406c32.011719 0 58.054688 26.042969 58.054688 58.054688zm0 0"/><path d="m152.585938 481.875c67.25 0 121.964843-54.714844 121.964843-121.964844s-54.714843-121.960937-121.964843-121.960937-121.960938 54.710937-121.960938 121.960937 54.710938 121.964844 121.960938 121.964844zm-83.847657-129.449219h-22.875c1.660157-23.878906 11.183594-45.621093 25.996094-62.648437l16.144531 16.140625c6.828125 6.828125 17.417969-3.761719 10.585938-10.589844l-16.140625-16.140625c17.03125-14.8125 38.773437-24.335938 62.648437-25.996094v22.875c0 9.65625 14.976563 9.65625 14.976563 0v-22.875c23.875 1.660156 45.617187 11.183594 62.644531 25.996094l-16.136719 16.140625c-6.832031 6.832031 3.757813 17.417969 10.585938 10.589844l16.140625-16.140625c14.816406 17.027344 24.339844 38.773437 25.996094 62.648437h-22.871094c-9.660156 0-9.660156 14.972657 0 14.972657h22.871094c-1.65625 23.878906-11.179688 45.621093-25.996094 62.648437l-16.140625-16.140625c-6.828125-6.828125-17.417969 3.761719-10.585938 10.589844l16.136719 16.140625c-17.027344 14.8125-38.769531 24.335937-62.644531 25.996093v-22.875c0-9.65625-14.976563-9.65625-14.976563 0v22.875c-23.875-1.660156-45.621094-11.183593-62.648437-25.996093l16.140625-16.140625c6.832031-6.832032-3.757813-17.417969-10.585938-10.589844l-16.140625 16.140625c-14.816406-17.027344-24.339843-38.769531-25.996093-62.644531h22.871093c9.660157-.003906 9.660157-14.976563 0-14.976563zm0 0"/><path d="m149.03125 368.511719c2.367188 1.277343 5.441406 1.128906 7.667969-.332031l35.144531-23.097657c8.074219-5.304687-.152344-17.816406-8.222656-12.515625l-23.546875 15.472656v-39.339843c0-9.65625-14.972657-9.65625-14.972657 0v53.222656c-.003906 2.75 1.507813 5.28125 3.929688 6.589844zm0 0"/><path d="m94.183594 104.828125c4.132812 0 7.484375-3.351563 7.484375-7.488281v-89.851563c0-4.136719-3.351563-7.488281-7.484375-7.488281-4.136719 0-7.488282 3.351562-7.488282 7.488281v89.851563c0 4.136718 3.351563 7.488281 7.488282 7.488281zm0 0"/><path d="m151.089844 175.714844c4.132812 0 7.488281-3.351563 7.488281-7.488282v-118.808593c0-4.132813-3.355469-7.484375-7.488281-7.484375-4.136719 0-7.488282 3.351562-7.488282 7.484375v118.808593c0 4.136719 3.351563 7.488282 7.488282 7.488282zm0 0"/><path d="m38.773438 207.660156c4.132812 0 7.488281-3.351562 7.488281-7.488281v-150.753906c0-4.132813-3.355469-7.484375-7.488281-7.484375-4.136719 0-7.488282 3.351562-7.488282 7.484375v150.753906c0 4.136719 3.351563 7.488281 7.488282 7.488281zm0 0"/><path d="m210.492188 195.679688c4.132812 0 7.488281-3.351563 7.488281-7.488282v-50.914062c0-4.136719-3.355469-7.488282-7.488281-7.488282-4.136719 0-7.488282 3.351563-7.488282 7.488282v50.914062c0 4.136719 3.351563 7.488282 7.488282 7.488282zm0 0"/></svg>